<svg xmlns="http://www.w3.org/2000/svg"  viewBox="0 0 50 50" width="50px" height="50px"><path d="M 34.974609 4.9863281 A 1.0001 1.0001 0 0 0 34.193359 5.3886719 C 33.983378 5.6061631 29.272403 10.425271 22.910156 11.003906 C 17.023771 11.539032 13.691075 15.37644 11.974609 18.941406 C 10.807835 21.364707 10.34334 23.634611 10.148438 24.894531 C 9.5766288 24.78907 8.85858 24.581696 8.1875 24.130859 C 7.0598635 23.373305 6 22.035662 6 19 C 6 17.354937 4.6450628 16 3 16 C 1.3549372 16 0 17.354937 0 19 C 0 23.601084 1.7894907 26.704472 4.0761719 28.542969 C 6.2429712 30.28508 8.760849 30.92526 10.679688 30.988281 L 15.900391 34.46875 L 15.300781 37.792969 L 15.320312 37.703125 C 15.150396 38.316613 15.053702 38.994353 15.181641 39.695312 C 15.309579 40.396273 15.730725 41.137042 16.455078 41.572266 A 1.0001 1.0001 0 0 0 16.457031 41.572266 L 21.457031 44.572266 C 21.936828 44.859838 22.472809 45 22.998047 45 C 24.017263 45 25.013903 44.473573 25.572266 43.542969 C 26.41832 42.132382 25.953877 40.273981 24.542969 39.427734 L 22.320312 38.09375 L 23.708984 35.765625 C 24.578256 35.557628 25.361211 35.08617 26 34.410156 L 26 42 C 26 43.64497 27.35503 45 29 45 L 32.892578 45 C 34.344401 45 35.714627 44.009361 35.960938 42.496094 C 36.259749 40.660749 34.809239 39 33 39 L 32.257812 39 L 34.931641 27.414062 L 41.521484 18 L 47 18 A 1.0001 1.0001 0 0 0 47.949219 17.316406 L 49.949219 11.316406 A 1.0001 1.0001 0 0 0 49.242188 10.029297 L 45.878906 9.1914062 L 42.791016 5.3886719 A 1.0007573 1.0007573 0 0 0 42.708984 5.2949219 A 1.0001 1.0001 0 0 0 42.636719 5.2285156 A 1.0007573 1.0007573 0 0 0 42.634766 5.2285156 A 1.0001 1.0001 0 0 0 42.556641 5.1679688 A 1.0007573 1.0007573 0 0 0 42.554688 5.1679688 A 1.0001 1.0001 0 0 0 42.470703 5.1171875 A 1.0007573 1.0007573 0 0 0 42.46875 5.1171875 A 1.0007573 1.0007573 0 0 0 42.283203 5.0410156 A 1.0001 1.0001 0 0 0 42.189453 5.0175781 A 1.0007573 1.0007573 0 0 0 42.185547 5.0175781 A 1.0001 1.0001 0 0 0 42.089844 5.0039062 A 1.0007573 1.0007573 0 0 0 42.087891 5.0039062 A 1.0007573 1.0007573 0 0 0 41.990234 5 L 35.158203 5 A 1.0001 1.0001 0 0 0 34.974609 4.9863281 z M 36.517578 7 L 40.275391 7 L 38.128906 10.757812 L 36.517578 7 z M 34.632812 7.6835938 L 37.080078 13.394531 A 1.0001 1.0001 0 0 0 38.869141 13.496094 L 42.144531 7.765625 L 44.537109 10.712891 A 1.0001 1.0001 0 0 0 45.072266 11.052734 L 47.708984 11.708984 L 46.279297 16 L 41 16 A 1.0001 1.0001 0 0 0 40.181641 16.425781 L 33.181641 26.425781 A 1.0001 1.0001 0 0 0 33.025391 26.775391 L 30.025391 39.775391 A 1.0001 1.0001 0 0 0 31 41 L 33 41 C 33.620761 41 34.095517 41.505126 33.986328 42.175781 C 33.912638 42.628514 33.432755 43 32.892578 43 L 29 43 C 28.43497 43 28 42.56503 28 42 L 28 29 A 1.0001 1.0001 0 0 0 27.992188 28.865234 C 27.946043 26.598699 26.774462 24.838319 25.375 23.71875 C 23.947241 22.576543 22.333333 22 21 22 A 1.0001 1.0001 0 1 0 21 24 C 21.666667 24 23.052759 24.423457 24.125 25.28125 C 25.197241 26.139043 26 27.333333 26 29 C 26 30.277778 25.554184 31.615989 24.917969 32.570312 C 24.281753 33.524636 23.5 34 23 34 A 1.0001 1.0001 0 0 0 22.140625 34.488281 L 20.09375 37.927734 A 1.0001 1.0001 0 0 0 20.945312 39.439453 L 20.675781 39.439453 L 23.513672 41.142578 C 23.996764 41.432331 24.147368 42.030258 23.857422 42.513672 C 23.665784 42.833068 23.338831 43 22.998047 43 C 22.823902 43 22.650021 42.95511 22.486328 42.857422 L 22.484375 42.857422 L 17.486328 39.857422 C 17.263681 39.723646 17.199952 39.607477 17.150391 39.335938 C 17.100831 39.064397 17.132957 38.653793 17.248047 38.238281 A 1.0001 1.0001 0 0 0 17.269531 38.148438 L 17.984375 34.177734 A 1.0001 1.0001 0 0 0 17.554688 33.167969 L 11.660156 29.238281 A 1.0001 1.0001 0 0 0 11.306641 29.044922 A 1.0001 1.0001 0 0 0 11.267578 29.033203 A 1.0001 1.0001 0 0 0 10.898438 28.996094 C 10.89594 28.996057 10.893127 28.996133 10.890625 28.996094 C 9.3818062 28.972369 7.1366456 28.436859 5.3300781 26.984375 C 3.4815093 25.498122 2 23.099916 2 19 C 2 18.437063 2.4370628 18 3 18 C 3.5629372 18 4 18.437063 4 19 C 4 22.543338 5.4439022 24.69707 7.0722656 25.791016 C 8.4680379 26.728705 9.8647805 26.9314 10.632812 26.978516 A 1.0001 1.0001 0 0 0 11.9375 26.384766 A 1.0001073 1.0001073 0 0 0 12.011719 25.939453 C 12.04533 25.57999 12.340482 22.788788 13.775391 19.808594 C 15.308925 16.62356 17.976229 13.460968 23.089844 12.996094 C 28.866613 12.470706 33.025419 9.16285 34.632812 7.6835938 z M 7.1855469 35.699219 A 1.0001 1.0001 0 0 0 6.8945312 35.748047 C 6.0310906 36.025581 5.3850073 36.502828 4.9824219 37.054688 C 4.5798364 37.606546 4.4206529 38.186948 4.3222656 38.636719 C 4.2331146 39.044265 4.1783602 39.307415 4.1445312 39.412109 C 4.1445312 39.412109 4.1425781 39.412109 4.1425781 39.412109 A 1.0001 1.0001 0 0 0 4.1132812 39.417969 A 1.0001 1.0001 0 0 0 4.1074219 39.417969 A 1.0001 1.0001 0 0 0 4.0957031 39.419922 A 1.0001 1.0001 0 0 0 3.5488281 39.726562 C 2.2549128 40.279209 1.4425071 41.275839 1.1777344 42.181641 C 0.87407943 43.22046 1.0097656 44.136719 1.0097656 44.136719 A 1.0001 1.0001 0 0 0 2 45 L 11.5 45 A 1.0001 1.0001 0 0 0 12.289062 44.613281 C 13.233066 43.399564 13.209375 41.844595 12.595703 40.683594 C 11.982031 39.522592 10.813648 38.63906 9.3945312 38.503906 L 9.4648438 38.513672 C 9.0870041 38.450665 9.0102337 38.39038 8.8164062 38.103516 C 8.6225789 37.816651 8.4032669 37.244545 8.1601562 36.417969 A 1.0001 1.0001 0 0 0 7.1855469 35.699219 z M 6.7207031 38.154297 C 6.8596003 38.505637 6.9525972 38.918359 7.1582031 39.222656 C 7.5893757 39.860792 8.3126048 40.349301 9.1347656 40.486328 A 1.0001 1.0001 0 0 0 9.2050781 40.496094 C 9.8859618 40.560944 10.516797 41.028188 10.828125 41.617188 C 11.071457 42.077545 11.060266 42.539746 10.861328 43 L 3.0722656 43 C 3.0903666 42.876541 3.0582422 42.877023 3.0976562 42.742188 C 3.2336704 42.276876 3.5384856 41.889506 4.1210938 41.601562 C 4.5679635 41.944693 5.0539213 42.17727 5.4804688 42.291016 C 6.1587952 42.471868 6.75 42.498047 6.75 42.498047 A 1.0001 1.0001 0 1 0 6.8496094 40.501953 C 6.8496094 40.501953 6.4427702 40.478493 5.9960938 40.359375 C 5.9635067 40.350675 5.968835 40.340048 5.9375 40.330078 C 5.93904 40.326778 5.9438125 40.323613 5.9453125 40.320312 C 6.17177 39.823211 6.200731 39.414683 6.2773438 39.064453 C 6.3539568 38.714224 6.4439918 38.443063 6.5976562 38.232422 C 6.6184392 38.203932 6.6969602 38.182297 6.7207031 38.154297 z"/></svg>